<svg width="69" height="48" viewBox="0 0 69 48" fill="none" xmlns="http://www.w3.org/2000/svg">
<rect x="0.5" y="0.345703" width="68" height="47.3089" rx="23.6545" fill="#344E65"/>
<path d="M28.3312 25.75L24 29.25V15.25C24 15.0179 24.0922 14.7954 24.2563 14.6313C24.4204 14.4672 24.6429 14.375 24.875 14.375H38.875C39.1071 14.375 39.3296 14.4672 39.4937 14.6313C39.6578 14.7954 39.75 15.0179 39.75 15.25V24.875C39.75 25.1071 39.6578 25.3296 39.4937 25.4937C39.3296 25.6578 39.1071 25.75 38.875 25.75H28.3312Z" stroke="#E7EBED" stroke-width="2" stroke-linecap="round" stroke-linejoin="round"/>
<path d="M29.25 25.75V30.125C29.25 30.3571 29.3422 30.5796 29.5063 30.7437C29.6704 30.9078 29.8929 31 30.125 31H40.6687L45 34.5V20.5C45 20.2679 44.9078 20.0454 44.7437 19.8813C44.5796 19.7172 44.3571 19.625 44.125 19.625H39.75" stroke="#E7EBED" stroke-width="2" stroke-linecap="round" stroke-linejoin="round"/>
</svg>
