<svg width="184" height="60" viewBox="0 0 184 60" fill="none" xmlns="http://www.w3.org/2000/svg">
<rect width="184" height="60" rx="30" fill="url(#paint0_linear_52_4230)"/>
<path d="M55.052 35.66C54.1027 35.66 53.2867 35.5053 52.604 35.196C51.9213 34.876 51.388 34.3907 51.004 33.74C50.62 33.0787 50.412 32.2573 50.38 31.276C50.3693 30.8173 50.364 30.364 50.364 29.916C50.364 29.468 50.3693 29.0093 50.38 28.54C50.412 27.5693 50.6253 26.7587 51.02 26.108C51.4147 25.4573 51.9533 24.9667 52.636 24.636C53.3293 24.3053 54.1347 24.14 55.052 24.14C55.9693 24.14 56.7747 24.3053 57.468 24.636C58.1613 24.9667 58.7053 25.4573 59.1 26.108C59.4947 26.7587 59.708 27.5693 59.74 28.54C59.7613 29.0093 59.772 29.468 59.772 29.916C59.772 30.364 59.7613 30.8173 59.74 31.276C59.708 32.2573 59.5 33.0787 59.116 33.74C58.732 34.3907 58.1933 34.876 57.5 35.196C56.8173 35.5053 56.0013 35.66 55.052 35.66ZM55.052 33.82C55.7453 33.82 56.3107 33.6173 56.748 33.212C57.1853 32.796 57.42 32.124 57.452 31.196C57.4733 30.7267 57.484 30.2947 57.484 29.9C57.484 29.4947 57.4733 29.0627 57.452 28.604C57.4307 27.9853 57.3133 27.484 57.1 27.1C56.8973 26.7053 56.62 26.4227 56.268 26.252C55.916 26.0707 55.5107 25.98 55.052 25.98C54.604 25.98 54.204 26.0707 53.852 26.252C53.5 26.4227 53.2173 26.7053 53.004 27.1C52.8013 27.484 52.6893 27.9853 52.668 28.604C52.6573 29.0627 52.652 29.4947 52.652 29.9C52.652 30.2947 52.6573 30.7267 52.668 31.196C52.7 32.124 52.9347 32.796 53.372 33.212C53.8093 33.6173 54.3693 33.82 55.052 33.82ZM64.225 35.5C64.1077 35.5 64.0117 35.4627 63.937 35.388C63.873 35.3133 63.841 35.2227 63.841 35.116V28.876H61.233C61.1157 28.876 61.0197 28.8387 60.945 28.764C60.881 28.6893 60.849 28.5987 60.849 28.492V27.564C60.849 27.4573 60.881 27.3667 60.945 27.292C61.0197 27.2173 61.1157 27.18 61.233 27.18H68.497C68.6143 27.18 68.7103 27.2173 68.785 27.292C68.8597 27.3667 68.897 27.4573 68.897 27.564V28.492C68.897 28.5987 68.8597 28.6893 68.785 28.764C68.7103 28.8387 68.6143 28.876 68.497 28.876H65.905V35.116C65.905 35.2227 65.8677 35.3133 65.793 35.388C65.7183 35.4627 65.6277 35.5 65.521 35.5H64.225ZM70.5494 35.5C70.4427 35.5 70.352 35.4627 70.2774 35.388C70.2027 35.3133 70.1654 35.2227 70.1654 35.116V27.564C70.1654 27.4573 70.2027 27.3667 70.2774 27.292C70.352 27.2173 70.4427 27.18 70.5494 27.18H77.3974C77.5147 27.18 77.6054 27.2173 77.6694 27.292C77.744 27.3667 77.7814 27.4573 77.7814 27.564V35.116C77.7814 35.2227 77.744 35.3133 77.6694 35.388C77.6054 35.4627 77.5147 35.5 77.3974 35.5H76.0694C75.9627 35.5 75.872 35.4627 75.7974 35.388C75.7227 35.3133 75.6854 35.2227 75.6854 35.116V28.876H72.2614V35.116C72.2614 35.2227 72.224 35.3133 72.1494 35.388C72.0854 35.4627 71.9947 35.5 71.8774 35.5H70.5494ZM80.3466 38.54C80.24 38.54 80.1493 38.5027 80.0746 38.428C80 38.3533 79.9626 38.2627 79.9626 38.156V27.564C79.9626 27.4573 80 27.3667 80.0746 27.292C80.1493 27.2173 80.24 27.18 80.3466 27.18H81.6106C81.728 27.18 81.8186 27.2173 81.8826 27.292C81.9573 27.3667 81.9946 27.4573 81.9946 27.564V28.204C82.2506 27.8627 82.5866 27.58 83.0026 27.356C83.4186 27.132 83.936 27.02 84.5546 27.02C85.12 27.02 85.6106 27.1107 86.0266 27.292C86.4426 27.4733 86.7893 27.7347 87.0666 28.076C87.344 28.4067 87.5573 28.8013 87.7066 29.26C87.856 29.7187 87.9413 30.2253 87.9626 30.78C87.9733 30.9613 87.9786 31.148 87.9786 31.34C87.9786 31.532 87.9733 31.724 87.9626 31.916C87.952 32.4493 87.872 32.9453 87.7226 33.404C87.5733 33.852 87.3546 34.2467 87.0666 34.588C86.7893 34.9187 86.4426 35.18 86.0266 35.372C85.6106 35.564 85.12 35.66 84.5546 35.66C83.9786 35.66 83.488 35.5587 83.0826 35.356C82.6773 35.1427 82.3466 34.8653 82.0906 34.524V38.156C82.0906 38.2627 82.0533 38.3533 81.9786 38.428C81.9146 38.5027 81.824 38.54 81.7066 38.54H80.3466ZM83.9626 33.948C84.4213 33.948 84.7786 33.852 85.0346 33.66C85.2906 33.4573 85.472 33.196 85.5786 32.876C85.696 32.556 85.7653 32.204 85.7866 31.82C85.808 31.5 85.808 31.18 85.7866 30.86C85.7653 30.476 85.696 30.124 85.5786 29.804C85.472 29.484 85.2906 29.228 85.0346 29.036C84.7786 28.8333 84.4213 28.732 83.9626 28.732C83.5253 28.732 83.168 28.8333 82.8906 29.036C82.624 29.2387 82.4266 29.5 82.2986 29.82C82.1813 30.1293 82.112 30.4493 82.0906 30.78C82.08 30.972 82.0746 31.1747 82.0746 31.388C82.0746 31.6013 82.08 31.8093 82.0906 32.012C82.1013 32.332 82.176 32.6413 82.3146 32.94C82.4533 33.228 82.656 33.468 82.9226 33.66C83.1893 33.852 83.536 33.948 83.9626 33.948ZM92.1908 35.66C91.6361 35.66 91.1348 35.5533 90.6868 35.34C90.2388 35.116 89.8814 34.8227 89.6148 34.46C89.3588 34.0867 89.2308 33.6707 89.2308 33.212C89.2308 32.4653 89.5294 31.8733 90.1268 31.436C90.7348 30.988 91.5348 30.6893 92.5268 30.54L94.7188 30.22V29.884C94.7188 29.436 94.6068 29.0893 94.3828 28.844C94.1588 28.5987 93.7748 28.476 93.2308 28.476C92.8468 28.476 92.5321 28.556 92.2868 28.716C92.0521 28.8653 91.8761 29.068 91.7588 29.324C91.6734 29.4627 91.5508 29.532 91.3908 29.532H90.1268C90.0094 29.532 89.9188 29.5 89.8548 29.436C89.8014 29.372 89.7747 29.2867 89.7747 29.18C89.7854 29.0093 89.8548 28.8013 89.9828 28.556C90.1108 28.3107 90.3134 28.076 90.5908 27.852C90.8681 27.6173 91.2254 27.42 91.6628 27.26C92.1001 27.1 92.6281 27.02 93.2468 27.02C93.9188 27.02 94.4841 27.1053 94.9428 27.276C95.4121 27.436 95.7854 27.6547 96.0628 27.932C96.3401 28.2093 96.5428 28.5347 96.6708 28.908C96.7988 29.2813 96.8628 29.676 96.8628 30.092V35.116C96.8628 35.2227 96.8254 35.3133 96.7508 35.388C96.6761 35.4627 96.5854 35.5 96.4788 35.5H95.1828C95.0654 35.5 94.9694 35.4627 94.8948 35.388C94.8308 35.3133 94.7988 35.2227 94.7988 35.116V34.492C94.6601 34.6947 94.4734 34.8867 94.2388 35.068C94.0041 35.2387 93.7161 35.3827 93.3748 35.5C93.0441 35.6067 92.6494 35.66 92.1908 35.66ZM92.7348 34.14C93.1081 34.14 93.4441 34.06 93.7428 33.9C94.0521 33.74 94.2921 33.4947 94.4628 33.164C94.6441 32.8227 94.7348 32.396 94.7348 31.884V31.548L93.1348 31.804C92.5054 31.9 92.0361 32.0547 91.7268 32.268C91.4174 32.4813 91.2628 32.7427 91.2628 33.052C91.2628 33.2867 91.3321 33.4893 91.4708 33.66C91.6201 33.82 91.8068 33.9427 92.0308 34.028C92.2548 34.1027 92.4894 34.14 92.7348 34.14ZM99.2994 35.5C99.1927 35.5 99.102 35.4627 99.0274 35.388C98.9527 35.3133 98.9154 35.2227 98.9154 35.116V27.564C98.9154 27.4573 98.9527 27.3667 99.0274 27.292C99.102 27.2173 99.1927 27.18 99.2994 27.18H102.851C103.982 27.18 104.819 27.388 105.363 27.804C105.907 28.22 106.179 28.78 106.179 29.484C106.179 29.932 106.094 30.2787 105.923 30.524C105.753 30.7693 105.518 30.9827 105.219 31.164C105.593 31.3347 105.881 31.596 106.083 31.948C106.297 32.2893 106.403 32.668 106.403 33.084C106.403 33.852 106.115 34.4493 105.539 34.876C104.974 35.292 104.137 35.5 103.027 35.5H99.2994ZM100.963 34.06H102.883C103.31 34.06 103.651 33.98 103.907 33.82C104.163 33.66 104.291 33.4093 104.291 33.068C104.291 32.716 104.174 32.46 103.939 32.3C103.705 32.14 103.353 32.06 102.883 32.06H100.963V34.06ZM100.963 30.572H102.819C103.246 30.572 103.582 30.4867 103.827 30.316C104.073 30.1347 104.195 29.8733 104.195 29.532C104.195 29.1907 104.067 28.956 103.811 28.828C103.566 28.6893 103.235 28.62 102.819 28.62H100.963V30.572ZM108.612 35.5C108.516 35.5 108.43 35.4627 108.356 35.388C108.281 35.3133 108.243 35.228 108.243 35.132V27.564C108.243 27.4573 108.281 27.3667 108.356 27.292C108.43 27.2173 108.521 27.18 108.628 27.18H109.956C110.073 27.18 110.164 27.2173 110.228 27.292C110.302 27.3667 110.34 27.4573 110.34 27.564V33.884L109.78 33.484L114.18 27.436C114.233 27.3613 114.292 27.3027 114.356 27.26C114.42 27.2067 114.505 27.18 114.612 27.18H115.828C115.924 27.18 116.009 27.2173 116.084 27.292C116.158 27.356 116.196 27.436 116.196 27.532V35.116C116.196 35.2227 116.158 35.3133 116.084 35.388C116.009 35.4627 115.918 35.5 115.812 35.5H114.484C114.366 35.5 114.27 35.4627 114.196 35.388C114.132 35.3133 114.1 35.2227 114.1 35.116V29.084L114.692 29.164L110.26 35.244C110.217 35.308 110.158 35.3667 110.084 35.42C110.02 35.4733 109.934 35.5 109.828 35.5H108.612ZM120.756 35.5C120.639 35.5 120.543 35.4627 120.468 35.388C120.404 35.3133 120.372 35.2227 120.372 35.116V28.876H117.764C117.647 28.876 117.551 28.8387 117.476 28.764C117.412 28.6893 117.38 28.5987 117.38 28.492V27.564C117.38 27.4573 117.412 27.3667 117.476 27.292C117.551 27.2173 117.647 27.18 117.764 27.18H125.028C125.146 27.18 125.242 27.2173 125.316 27.292C125.391 27.3667 125.428 27.4573 125.428 27.564V28.492C125.428 28.5987 125.391 28.6893 125.316 28.764C125.242 28.8387 125.146 28.876 125.028 28.876H122.436V35.116C122.436 35.2227 122.399 35.3133 122.324 35.388C122.25 35.4627 122.159 35.5 122.052 35.5H120.756ZM127.081 35.5C126.974 35.5 126.883 35.4627 126.809 35.388C126.734 35.3133 126.697 35.2227 126.697 35.116V27.564C126.697 27.4573 126.734 27.3667 126.809 27.292C126.883 27.2173 126.974 27.18 127.081 27.18H128.425C128.531 27.18 128.622 27.2173 128.697 27.292C128.771 27.3667 128.809 27.4573 128.809 27.564V29.82H130.457C131.545 29.82 132.361 30.076 132.905 30.588C133.449 31.1 133.721 31.804 133.721 32.7C133.721 33.628 133.427 34.3267 132.841 34.796C132.254 35.2653 131.417 35.5 130.329 35.5H127.081ZM128.777 33.98H130.281C130.803 33.98 131.187 33.884 131.433 33.692C131.689 33.5 131.817 33.1693 131.817 32.7C131.817 32.2413 131.694 31.9 131.449 31.676C131.214 31.452 130.825 31.34 130.281 31.34H128.777V33.98Z" fill="white"/>
<defs>
<linearGradient id="paint0_linear_52_4230" x1="39.7108" y1="60.0004" x2="159.556" y2="29.7035" gradientUnits="userSpaceOnUse">
<stop stop-color="#257CFF"/>
<stop offset="1" stop-color="#0F5BCC"/>
</linearGradient>
</defs>
</svg>
