<svg width="28" height="28" viewBox="0 0 28 28" fill="none" xmlns="http://www.w3.org/2000/svg">
<path d="M14 18.8125C16.6579 18.8125 18.8125 16.6579 18.8125 14C18.8125 11.3421 16.6579 9.1875 14 9.1875C11.3421 9.1875 9.1875 11.3421 9.1875 14C9.1875 16.6579 11.3421 18.8125 14 18.8125Z" stroke="#E7EBED" stroke-width="2" stroke-linecap="round" stroke-linejoin="round"/>
<path d="M21.5906 8.82578C21.8539 9.20277 22.0844 9.60162 22.2797 10.018L25.1125 11.593C25.4662 13.1772 25.4699 14.8196 25.1234 16.4055L22.2797 17.9805C22.0844 18.3968 21.8539 18.7957 21.5906 19.1727L21.6453 22.4211C20.4447 23.5151 19.0238 24.3393 17.4781 24.8383L14.689 23.1648C14.2302 23.1977 13.7697 23.1977 13.3109 23.1648L10.5328 24.8273C8.98218 24.3375 7.55657 23.5164 6.35466 22.4211L6.40935 19.1836C6.14824 18.8014 5.91783 18.3991 5.72028 17.9805L2.88747 16.4055C2.53375 14.8212 2.53002 13.1788 2.87653 11.593L5.72028 10.018C5.9155 9.60162 6.14603 9.20277 6.40935 8.82578L6.35466 5.57734C7.55521 4.48334 8.97614 3.65913 10.5218 3.16016L13.3109 4.83359C13.7697 4.80078 14.2302 4.80078 14.689 4.83359L17.4672 3.17109C19.0178 3.66098 20.4434 4.48201 21.6453 5.57734L21.5906 8.82578Z" stroke="#E7EBED" stroke-width="2" stroke-linecap="round" stroke-linejoin="round"/>
</svg>
