<svg width="29" height="28" viewBox="0 0 29 28" fill="none" xmlns="http://www.w3.org/2000/svg">
<path d="M23.5874 7.875H5.91244C5.69714 7.87601 5.48957 7.95539 5.32853 8.09831C5.1675 8.24123 5.06402 8.4379 5.03744 8.65156L3.48432 22.6516C3.4705 22.7735 3.48251 22.8971 3.51956 23.0141C3.55661 23.1311 3.61788 23.2391 3.69937 23.3309C3.78087 23.4227 3.88077 23.4963 3.99258 23.547C4.10439 23.5977 4.22562 23.6242 4.34838 23.625H25.1515C25.2743 23.6242 25.3955 23.5977 25.5073 23.547C25.6191 23.4963 25.719 23.4227 25.8005 23.3309C25.882 23.2391 25.9433 23.1311 25.9803 23.0141C26.0174 22.8971 26.0294 22.7735 26.0156 22.6516L24.4624 8.65156C24.4359 8.4379 24.3324 8.24123 24.1714 8.09831C24.0103 7.95539 23.8027 7.87601 23.5874 7.875V7.875Z" stroke="#E7EBED" stroke-width="2" stroke-linecap="round" stroke-linejoin="round"/>
<path d="M10.375 11.375V7.875C10.375 6.71468 10.8359 5.60188 11.6564 4.78141C12.4769 3.96094 13.5897 3.5 14.75 3.5C15.9103 3.5 17.0231 3.96094 17.8436 4.78141C18.6641 5.60188 19.125 6.71468 19.125 7.875V11.375" stroke="#E7EBED" stroke-width="2" stroke-linecap="round" stroke-linejoin="round"/>
</svg>
