<svg width="28" height="28" viewBox="0 0 28 28" fill="none" xmlns="http://www.w3.org/2000/svg">
<path d="M25.8891 13.3216L23.1875 14.6669L19.6875 7.97315L22.4219 6.60596C22.6251 6.50238 22.861 6.48335 23.0782 6.55301C23.2954 6.62267 23.4762 6.77538 23.5813 6.97784L26.2719 12.1294C26.3264 12.2325 26.3598 12.3455 26.3701 12.4617C26.3803 12.5779 26.3672 12.695 26.3316 12.8061C26.2959 12.9172 26.2384 13.02 26.1624 13.1086C26.0864 13.1971 25.9935 13.2695 25.8891 13.3216V13.3216Z" stroke="#E7EBED" stroke-width="2" stroke-linecap="round" stroke-linejoin="round"/>
<path d="M4.81256 14.5587L2.111 13.2024C2.00697 13.1514 1.91427 13.0801 1.83839 12.9925C1.7625 12.905 1.705 12.8031 1.66928 12.6929C1.63357 12.5827 1.62038 12.4664 1.6305 12.351C1.64062 12.2356 1.67384 12.1235 1.72818 12.0212L4.41881 6.8696C4.52406 6.66729 4.70414 6.51406 4.92069 6.44256C5.13725 6.37106 5.37316 6.38692 5.57818 6.48678L8.31256 7.85397L4.81256 14.5587Z" stroke="#E7EBED" stroke-width="2" stroke-linecap="round" stroke-linejoin="round"/>
<path d="M23.1875 14.668L21.875 16.7242L17.85 20.7492C17.7403 20.8518 17.6074 20.9263 17.4626 20.9663C17.3179 21.0063 17.1656 21.0106 17.0188 20.9789L10.675 19.393C10.5591 19.3607 10.4511 19.3048 10.3578 19.2289L4.8125 14.5586" stroke="#E7EBED" stroke-width="2" stroke-linecap="round" stroke-linejoin="round"/>
<path d="M21.8751 16.7227L17.0626 13.2227L15.6626 14.2727C15.0561 14.7254 14.3195 14.9699 13.5626 14.9699C12.8057 14.9699 12.0691 14.7254 11.4626 14.2727L10.872 13.8242C10.7721 13.7483 10.6895 13.652 10.6296 13.5418C10.5697 13.4315 10.534 13.3098 10.5247 13.1847C10.5154 13.0596 10.5327 12.9339 10.5756 12.816C10.6185 12.6981 10.686 12.5907 10.7735 12.5008L15.061 8.22422C15.1416 8.14408 15.2371 8.08061 15.3422 8.03744C15.4473 7.99428 15.5599 7.97226 15.6735 7.97266H19.6876" stroke="#E7EBED" stroke-width="2" stroke-linecap="round" stroke-linejoin="round"/>
<path d="M8.37817 7.85226L13.5516 6.21164C13.751 6.15446 13.9642 6.16997 14.1532 6.25539L17.9375 7.97257" stroke="#E7EBED" stroke-width="2" stroke-linecap="round" stroke-linejoin="round"/>
<path d="M11.8125 24.1609L8.52031 23.3297C8.38616 23.2994 8.26193 23.2354 8.15937 23.1438L5.6875 21" stroke="#E7EBED" stroke-width="2" stroke-linecap="round" stroke-linejoin="round"/>
</svg>
