<svg width="114" height="19" viewBox="0 0 114 19" fill="none" xmlns="http://www.w3.org/2000/svg">
<circle cx="27.9261" cy="8.29666" r="1.11111" fill="#E7EBED"/>
<circle cx="30.8889" cy="8.29666" r="1.11111" fill="#E7EBED"/>
<circle cx="33.8521" cy="8.29666" r="1.11111" fill="#E7EBED"/>
<path fill-rule="evenodd" clip-rule="evenodd" d="M20.8101 8.04959C20.8101 5.86319 22.7193 2 30.4621 2H31.1689C38.8624 2 40.8045 5.86319 40.8045 8.04959V8.54276C40.8045 10.6963 38.8789 14.6581 31.1689 14.6581H30.4621C28.8006 14.6581 27.4078 14.4757 26.2448 14.1679C25.5047 14.4607 23.9993 14.9368 21.6083 15.1764C21.382 15.1984 21.2223 14.9637 21.3226 14.7676C21.3367 14.7401 21.3507 14.7127 21.3646 14.6853C21.7878 13.8567 22.1869 13.0751 22.3606 12.0569C21.2042 10.873 20.8101 9.52123 20.8101 8.54276V8.04959ZM30.8073 11.6826C35.955 11.6826 36.7934 9.80857 36.7934 8.39481V8.16466C36.7934 6.76734 35.9879 4.95904 30.8073 4.95904C25.561 4.95904 24.8212 6.76734 24.8212 8.16466V8.36193C24.8212 9.75925 25.6267 11.6826 30.8073 11.6826Z" fill="#E7EBED"/>
<path d="M10.8607 14.7616C17.8473 14.7616 19.0638 11.3423 19.0638 9.79701V9.61618H15.0033C14.9047 9.89565 14.5102 11.7861 10.5483 11.7861C6.98105 11.7861 6.01114 9.87921 6.01114 8.43257V8.2353C6.01114 6.70646 6.84953 5.06255 10.5155 5.06255C14.3951 5.06255 14.8883 6.77222 14.9869 7.101H19.0473V6.92017C19.0473 5.48997 17.9459 2.10352 10.8607 2.10352H10.1867C2.95347 2.10352 2 5.93383 2 8.1531V8.62984C2 10.7998 3.10142 14.7616 10.1867 14.7616H10.8607Z" fill="#E7EBED"/>
<path d="M51.559 14.7616C58.5457 14.7616 59.7621 11.3423 59.7621 9.79701V9.61618H55.7017C55.6031 9.89565 55.2085 11.7861 51.2467 11.7861C47.6794 11.7861 46.7095 9.87921 46.7095 8.43257V8.2353C46.7095 6.70646 47.5479 5.06255 51.2138 5.06255C55.0934 5.06255 55.5866 6.77222 55.6852 7.101H59.7457V6.92017C59.7457 5.48997 58.6443 2.10352 51.559 2.10352H50.885C43.6518 2.10352 42.6984 5.93383 42.6984 8.1531V8.62984C42.6984 10.7998 43.7998 14.7616 50.885 14.7616H51.559Z" fill="#E7EBED"/>
<path d="M62.0014 2.31722V14.5479H75.054V11.7039H65.7824V9.69838H74.6759V6.90373H65.7824V5.09543H74.8896V2.31722H62.0014Z" fill="#E7EBED"/>
<path d="M76.6975 11.5889V16.6028H80.3634V14.5479H90.4899V16.6028H94.1558V11.5889H92.1831V2.31722H78.9661C78.9661 7.59417 78.8674 10.3231 78.2592 11.5889H76.6975ZM81.7114 11.5889C82.2375 10.4053 82.3525 7.775 82.3525 5.27626H88.3528V11.5889H81.7114Z" fill="#E7EBED"/>
<path d="M108.17 14.5479H112V2.31722H108.17L99.9666 10.4217V2.31722H96.1363V14.5479H99.9666L108.17 6.47632V14.5479Z" fill="#E7EBED"/>
</svg>
