<svg width="29" height="28" viewBox="0 0 29 28" fill="none" xmlns="http://www.w3.org/2000/svg">
<path d="M15.4202 19.1947L13.3202 24.8932C13.2581 25.0606 13.1461 25.205 12.9995 25.307C12.8529 25.409 12.6785 25.4637 12.4999 25.4637C12.3213 25.4637 12.1469 25.409 12.0003 25.307C11.8537 25.205 11.7418 25.0606 11.6796 24.8932L9.5796 19.1947C9.53528 19.0745 9.46539 18.9652 9.37475 18.8746C9.28411 18.7839 9.17488 18.7141 9.0546 18.6697L3.35616 16.5697C3.1887 16.5076 3.04428 16.3957 2.9423 16.249C2.84031 16.1024 2.78564 15.928 2.78564 15.7494C2.78564 15.5708 2.84031 15.3965 2.9423 15.2498C3.04428 15.1032 3.1887 14.9913 3.35616 14.9291L9.0546 12.8291C9.17488 12.7848 9.28411 12.7149 9.37475 12.6243C9.46539 12.5336 9.53528 12.4244 9.5796 12.3041L11.6796 6.60567C11.7418 6.43821 11.8537 6.29379 12.0003 6.19181C12.1469 6.08982 12.3213 6.03516 12.4999 6.03516C12.6785 6.03516 12.8529 6.08982 12.9995 6.19181C13.1461 6.29379 13.2581 6.43821 13.3202 6.60567L15.4202 12.3041C15.4645 12.4244 15.5344 12.5336 15.6251 12.6243C15.7157 12.7149 15.8249 12.7848 15.9452 12.8291L21.6437 14.9291C21.8111 14.9913 21.9555 15.1032 22.0575 15.2498C22.1595 15.3965 22.2142 15.5708 22.2142 15.7494C22.2142 15.928 22.1595 16.1024 22.0575 16.249C21.9555 16.3957 21.8111 16.5076 21.6437 16.5697L15.9452 18.6697C15.8249 18.7141 15.7157 18.7839 15.6251 18.8746C15.5344 18.9652 15.4645 19.0745 15.4202 19.1947V19.1947Z" stroke="#E7EBED" stroke-width="2" stroke-linecap="round" stroke-linejoin="round"/>
<path d="M19.5 1.75V7" stroke="#E7EBED" stroke-width="2" stroke-linecap="round" stroke-linejoin="round"/>
<path d="M22.125 4.375H16.875" stroke="#E7EBED" stroke-width="2" stroke-linecap="round" stroke-linejoin="round"/>
<path d="M24.75 7.875V11.375" stroke="#E7EBED" stroke-width="2" stroke-linecap="round" stroke-linejoin="round"/>
<path d="M26.5 9.625H23" stroke="#E7EBED" stroke-width="2" stroke-linecap="round" stroke-linejoin="round"/>
</svg>
